<svg width="50" height="50" viewBox="0 0 50 50" fill="none" xmlns="http://www.w3.org/2000/svg">
<circle cx="25" cy="25" r="25" fill="#D9D9D9"/>
<path d="M31 16C32.0609 16 33.0783 16.4214 33.8284 17.1716C34.5786 17.9217 35 18.9391 35 20V28C35 29.0609 34.5786 30.0783 33.8284 30.8284C33.0783 31.5786 32.0609 32 31 32H26.276L21.514 34.857C21.3706 34.9431 21.2079 34.9918 21.0408 34.9987C20.8737 35.0056 20.7075 34.9705 20.5575 34.8966C20.4074 34.8227 20.2783 34.7123 20.182 34.5756C20.0857 34.4389 20.0251 34.2802 20.006 34.114L20 34V32H19C17.9738 32 16.9868 31.6056 16.2432 30.8983C15.4996 30.191 15.0563 29.225 15.005 28.2L15 28V20C15 18.9391 15.4214 17.9217 16.1716 17.1716C16.9217 16.4214 17.9391 16 19 16H31ZM27 25H21C20.7348 25 20.4804 25.1054 20.2929 25.2929C20.1054 25.4804 20 25.7348 20 26C20 26.2652 20.1054 26.5196 20.2929 26.7071C20.4804 26.8946 20.7348 27 21 27H27C27.2652 27 27.5196 26.8946 27.7071 26.7071C27.8946 26.5196 28 26.2652 28 26C28 25.7348 27.8946 25.4804 27.7071 25.2929C27.5196 25.1054 27.2652 25 27 25ZM29 21H21C20.7348 21 20.4804 21.1054 20.2929 21.2929C20.1054 21.4804 20 21.7348 20 22C20 22.2652 20.1054 22.5196 20.2929 22.7071C20.4804 22.8946 20.7348 23 21 23H29C29.2652 23 29.5196 22.8946 29.7071 22.7071C29.8946 22.5196 30 22.2652 30 22C30 21.7348 29.8946 21.4804 29.7071 21.2929C29.5196 21.1054 29.2652 21 29 21Z" fill="#7C7C7C"/>
</svg>
