<svg width="25" height="15" viewBox="0 0 25 15" fill="none" xmlns="http://www.w3.org/2000/svg">
<path d="M17.9688 0H7.03125C3.1543 0 0 3.1543 0 7.03125C0 10.9082 3.1543 14.0625 7.03125 14.0625H17.9688C21.8457 14.0625 25 10.9082 25 7.03125C25 3.1543 21.8457 0 17.9688 0ZM17.9688 12.5C16.8871 12.5 15.8298 12.1793 14.9305 11.5784C14.0311 10.9774 13.3302 10.1233 12.9163 9.12405C12.5024 8.12477 12.3941 7.02518 12.6051 5.96435C12.8161 4.90352 13.3369 3.92908 14.1018 3.16426C14.8666 2.39944 15.841 1.87859 16.9018 1.66758C17.9627 1.45657 19.0623 1.56487 20.0616 1.97878C21.0608 2.3927 21.9149 3.09364 22.5159 3.99298C23.1168 4.89231 23.4375 5.94963 23.4375 7.03125C23.4359 8.48118 22.8593 9.87127 21.834 10.8965C20.8088 11.9218 19.4187 12.4984 17.9688 12.5Z" fill="#7C7C7C"/>
</svg>
