<svg width="18" height="18" viewBox="0 0 18 18" fill="none" xmlns="http://www.w3.org/2000/svg">
<path d="M6.53731 17.9104L6.17911 15.0448C5.98508 14.9701 5.80239 14.8806 5.63105 14.7761C5.4597 14.6716 5.29164 14.5597 5.12687 14.4403L2.46269 15.5597L0 11.306L2.30597 9.5597C2.29104 9.45522 2.28358 9.35463 2.28358 9.25791V8.65343C2.28358 8.55612 2.29104 8.45522 2.30597 8.35075L0 6.60448L2.46269 2.35075L5.12687 3.47015C5.29105 3.35075 5.46269 3.23881 5.64179 3.13433C5.8209 3.02985 6 2.9403 6.17911 2.86567L6.53731 0H11.4627L11.8209 2.86567C12.0149 2.9403 12.1979 3.02985 12.3699 3.13433C12.5418 3.23881 12.7096 3.35075 12.8731 3.47015L15.5373 2.35075L18 6.60448L15.694 8.35075C15.709 8.45522 15.7164 8.55612 15.7164 8.65343V9.25702C15.7164 9.35433 15.7015 9.45522 15.6716 9.5597L17.9776 11.306L15.5149 15.5597L12.8731 14.4403C12.709 14.5597 12.5373 14.6716 12.3582 14.7761C12.1791 14.8806 12 14.9701 11.8209 15.0448L11.4627 17.9104H6.53731ZM9.04478 12.0896C9.91045 12.0896 10.6493 11.7836 11.2612 11.1716C11.8731 10.5597 12.1791 9.8209 12.1791 8.95522C12.1791 8.08955 11.8731 7.35075 11.2612 6.73881C10.6493 6.12687 9.91045 5.8209 9.04478 5.8209C8.16418 5.8209 7.42149 6.12687 6.81672 6.73881C6.21194 7.35075 5.90985 8.08955 5.91045 8.95522C5.91105 9.8209 6.21343 10.5597 6.81761 11.1716C7.42179 11.7836 8.16418 12.0896 9.04478 12.0896Z" fill="#7C7C7C"/>
</svg>
